<svg id="visual" viewBox="0 0 900 600" width="900" height="600" xmlns="http://www.w3.org/2000/svg" xmlns:xlink="http://www.w3.org/1999/xlink" version="1.1"><g stroke-width="1" stroke-linejoin="bevel"><path d="M462 328L379 406L472 385Z" fill="#59a9f0" stroke="#59a9f0"></path><path d="M462 328L381 292L379 406Z" fill="#f5f9fa" stroke="#f5f9fa"></path><path d="M316 310L322 415L379 406Z" fill="#4b99ee" stroke="#4b99ee"></path><path d="M381 292L316 310L379 406Z" fill="#f5f9fa" stroke="#f5f9fa"></path><path d="M322 415L392 512L379 406Z" fill="#5662da" stroke="#5662da"></path><path d="M379 406L392 512L472 385Z" fill="#4688ea" stroke="#4688ea"></path><path d="M539 521L577 384L472 385Z" fill="#d7edf5" stroke="#d7edf5"></path><path d="M472 385L577 384L462 328Z" fill="#d7edf5" stroke="#d7edf5"></path><path d="M462 328L377 210L381 292Z" fill="#5662da" stroke="#5662da"></path><path d="M381 292L301 228L316 310Z" fill="#4b99ee" stroke="#4b99ee"></path><path d="M537 224L377 210L462 328Z" fill="#4b76e3" stroke="#4b76e3"></path><path d="M577 384L582 304L462 328Z" fill="#4688ea" stroke="#4688ea"></path><path d="M377 210L301 228L381 292Z" fill="#d7edf5" stroke="#d7edf5"></path><path d="M220 474L300 531L322 415Z" fill="#bbe1f3" stroke="#bbe1f3"></path><path d="M582 304L537 224L462 328Z" fill="#85c6f1" stroke="#85c6f1"></path><path d="M392 512L539 521L472 385Z" fill="#59a9f0" stroke="#59a9f0"></path><path d="M322 415L300 531L392 512Z" fill="#4b99ee" stroke="#4b99ee"></path><path d="M392 512L483 600L539 521Z" fill="#4b99ee" stroke="#4b99ee"></path><path d="M199 410L322 415L316 310Z" fill="#85c6f1" stroke="#85c6f1"></path><path d="M582 304L579 223L537 224Z" fill="#4688ea" stroke="#4688ea"></path><path d="M537 224L466 77L377 210Z" fill="#4b99ee" stroke="#4b99ee"></path><path d="M165 337L199 410L316 310Z" fill="#59a9f0" stroke="#59a9f0"></path><path d="M199 410L220 474L322 415Z" fill="#f5f9fa" stroke="#f5f9fa"></path><path d="M313 600L439 600L392 512Z" fill="#5662da" stroke="#5662da"></path><path d="M439 600L483 600L392 512Z" fill="#f5f9fa" stroke="#f5f9fa"></path><path d="M301 228L165 337L316 310Z" fill="#6db8f1" stroke="#6db8f1"></path><path d="M199 410L106 392L220 474Z" fill="#9fd4f1" stroke="#9fd4f1"></path><path d="M192 600L313 600L300 531Z" fill="#85c6f1" stroke="#85c6f1"></path><path d="M300 531L313 600L392 512Z" fill="#4b76e3" stroke="#4b76e3"></path><path d="M636 600L636 504L539 521Z" fill="#bbe1f3" stroke="#bbe1f3"></path><path d="M539 521L636 504L577 384Z" fill="#bbe1f3" stroke="#bbe1f3"></path><path d="M577 384L700 395L582 304Z" fill="#f5f9fa" stroke="#f5f9fa"></path><path d="M582 304L694 266L579 223Z" fill="#6db8f1" stroke="#6db8f1"></path><path d="M236 113L211 185L301 228Z" fill="#85c6f1" stroke="#85c6f1"></path><path d="M301 228L211 185L165 337Z" fill="#9fd4f1" stroke="#9fd4f1"></path><path d="M236 113L301 228L377 210Z" fill="#5662da" stroke="#5662da"></path><path d="M636 504L700 395L577 384Z" fill="#9fd4f1" stroke="#9fd4f1"></path><path d="M586 99L466 77L537 224Z" fill="#bbe1f3" stroke="#bbe1f3"></path><path d="M700 395L694 266L582 304Z" fill="#9fd4f1" stroke="#9fd4f1"></path><path d="M579 223L586 99L537 224Z" fill="#f5f9fa" stroke="#f5f9fa"></path><path d="M466 77L421 69L377 210Z" fill="#9fd4f1" stroke="#9fd4f1"></path><path d="M269 62L236 113L377 210Z" fill="#f5f9fa" stroke="#f5f9fa"></path><path d="M165 337L106 392L199 410Z" fill="#f5f9fa" stroke="#f5f9fa"></path><path d="M220 474L192 600L300 531Z" fill="#d7edf5" stroke="#d7edf5"></path><path d="M105 293L106 392L165 337Z" fill="#5662da" stroke="#5662da"></path><path d="M139 220L165 337L211 185Z" fill="#59a9f0" stroke="#59a9f0"></path><path d="M707 164L586 99L579 223Z" fill="#bbe1f3" stroke="#bbe1f3"></path><path d="M110 108L139 220L211 185Z" fill="#6db8f1" stroke="#6db8f1"></path><path d="M483 600L636 600L539 521Z" fill="#85c6f1" stroke="#85c6f1"></path><path d="M636 504L737 480L700 395Z" fill="#85c6f1" stroke="#85c6f1"></path><path d="M139 220L105 293L165 337Z" fill="#9fd4f1" stroke="#9fd4f1"></path><path d="M94 533L192 600L220 474Z" fill="#85c6f1" stroke="#85c6f1"></path><path d="M421 69L269 62L377 210Z" fill="#4b76e3" stroke="#4b76e3"></path><path d="M236 113L110 108L211 185Z" fill="#85c6f1" stroke="#85c6f1"></path><path d="M720 600L737 480L636 504Z" fill="#5662da" stroke="#5662da"></path><path d="M700 395L814 337L694 266Z" fill="#bbe1f3" stroke="#bbe1f3"></path><path d="M765 194L707 164L694 266Z" fill="#59a9f0" stroke="#59a9f0"></path><path d="M694 266L707 164L579 223Z" fill="#bbe1f3" stroke="#bbe1f3"></path><path d="M466 77L411 0L421 69Z" fill="#6db8f1" stroke="#6db8f1"></path><path d="M421 69L322 0L269 62Z" fill="#f5f9fa" stroke="#f5f9fa"></path><path d="M524 0L411 0L466 77Z" fill="#85c6f1" stroke="#85c6f1"></path><path d="M524 0L466 77L586 99Z" fill="#85c6f1" stroke="#85c6f1"></path><path d="M0 503L94 533L106 392Z" fill="#85c6f1" stroke="#85c6f1"></path><path d="M106 392L94 533L220 474Z" fill="#59a9f0" stroke="#59a9f0"></path><path d="M836 495L783 438L737 480Z" fill="#bbe1f3" stroke="#bbe1f3"></path><path d="M737 480L783 438L700 395Z" fill="#4b76e3" stroke="#4b76e3"></path><path d="M411 0L322 0L421 69Z" fill="#4b76e3" stroke="#4b76e3"></path><path d="M628 0L524 0L586 99Z" fill="#9fd4f1" stroke="#9fd4f1"></path><path d="M636 600L720 600L636 504Z" fill="#d7edf5" stroke="#d7edf5"></path><path d="M814 337L765 194L694 266Z" fill="#5662da" stroke="#5662da"></path><path d="M707 164L716 94L586 99Z" fill="#4b76e3" stroke="#4b76e3"></path><path d="M783 438L814 337L700 395Z" fill="#4b99ee" stroke="#4b99ee"></path><path d="M94 533L95 600L192 600Z" fill="#4688ea" stroke="#4688ea"></path><path d="M205 0L236 113L269 62Z" fill="#bbe1f3" stroke="#bbe1f3"></path><path d="M205 0L110 108L236 113Z" fill="#5662da" stroke="#5662da"></path><path d="M0 239L0 270L105 293Z" fill="#6db8f1" stroke="#6db8f1"></path><path d="M105 293L0 371L106 392Z" fill="#4b99ee" stroke="#4b99ee"></path><path d="M788 97L716 94L707 164Z" fill="#4b99ee" stroke="#4b99ee"></path><path d="M0 270L0 371L105 293Z" fill="#4688ea" stroke="#4688ea"></path><path d="M94 533L0 600L95 600Z" fill="#f5f9fa" stroke="#f5f9fa"></path><path d="M716 94L628 0L586 99Z" fill="#5662da" stroke="#5662da"></path><path d="M322 0L205 0L269 62Z" fill="#9fd4f1" stroke="#9fd4f1"></path><path d="M0 239L105 293L139 220Z" fill="#4b99ee" stroke="#4b99ee"></path><path d="M0 129L0 239L139 220Z" fill="#bbe1f3" stroke="#bbe1f3"></path><path d="M825 600L836 495L737 480Z" fill="#9fd4f1" stroke="#9fd4f1"></path><path d="M783 438L900 403L814 337Z" fill="#d7edf5" stroke="#d7edf5"></path><path d="M0 371L0 503L106 392Z" fill="#bbe1f3" stroke="#bbe1f3"></path><path d="M786 0L675 0L716 94Z" fill="#9fd4f1" stroke="#9fd4f1"></path><path d="M716 94L675 0L628 0Z" fill="#4688ea" stroke="#4688ea"></path><path d="M900 161L788 97L765 194Z" fill="#f5f9fa" stroke="#f5f9fa"></path><path d="M765 194L788 97L707 164Z" fill="#4688ea" stroke="#4688ea"></path><path d="M900 265L765 194L814 337Z" fill="#bbe1f3" stroke="#bbe1f3"></path><path d="M720 600L825 600L737 480Z" fill="#bbe1f3" stroke="#bbe1f3"></path><path d="M0 503L0 600L94 533Z" fill="#5662da" stroke="#5662da"></path><path d="M110 108L0 129L139 220Z" fill="#85c6f1" stroke="#85c6f1"></path><path d="M0 0L0 129L110 108Z" fill="#5662da" stroke="#5662da"></path><path d="M205 0L106 0L110 108Z" fill="#59a9f0" stroke="#59a9f0"></path><path d="M900 524L900 403L836 495Z" fill="#4688ea" stroke="#4688ea"></path><path d="M836 495L900 403L783 438Z" fill="#85c6f1" stroke="#85c6f1"></path><path d="M900 403L900 265L814 337Z" fill="#f5f9fa" stroke="#f5f9fa"></path><path d="M825 600L900 524L836 495Z" fill="#bbe1f3" stroke="#bbe1f3"></path><path d="M900 71L786 0L788 97Z" fill="#5662da" stroke="#5662da"></path><path d="M788 97L786 0L716 94Z" fill="#bbe1f3" stroke="#bbe1f3"></path><path d="M900 265L900 161L765 194Z" fill="#4b99ee" stroke="#4b99ee"></path><path d="M825 600L900 600L900 524Z" fill="#59a9f0" stroke="#59a9f0"></path><path d="M106 0L0 0L110 108Z" fill="#85c6f1" stroke="#85c6f1"></path><path d="M900 161L900 71L788 97Z" fill="#bbe1f3" stroke="#bbe1f3"></path><path d="M900 71L900 0L786 0Z" fill="#bbe1f3" stroke="#bbe1f3"></path></g></svg>